<?xml version="1.0" encoding="UTF-8" standalone="no"?>
<!DOCTYPE svg PUBLIC "-//W3C//DTD SVG 1.1//EN" "http://www.w3.org/Graphics/SVG/1.1/DTD/svg11.dtd">
<svg width="100%" height="100%" viewBox="0 0 300 300" version="1.1" xmlns="http://www.w3.org/2000/svg" xmlns:xlink="http://www.w3.org/1999/xlink" xml:space="preserve" xmlns:serif="http://www.serif.com/" style="fill-rule:evenodd;clip-rule:evenodd;stroke-linejoin:round;stroke-miterlimit:2;">
    <g transform="matrix(0.0908198,0,0,0.0908198,36.4752,81.7035)">
        <g id="Folder-1-copy-copy-copy" serif:id="Folder 1 copy copy copy">
            <path d="M1250,2C916.67,2 708.33,168.67 625,502C750,335.33 895.83,272.83 1062.5,314.5C1157.59,338.27 1225.56,407.264 1300.79,483.621C1423.35,608.025 1565.19,752 1875,752C2208.33,752 2416.67,585.33 2500,252C2375,418.67 2229.17,481.17 2062.5,439.5C1967.41,415.73 1899.44,346.736 1824.21,270.379C1701.65,145.975 1559.81,2 1250,2ZM625,752C291.67,752 83.33,918.67 0,1252C125,1085.33 270.83,1022.83 437.5,1064.5C532.588,1088.27 600.557,1157.26 675.791,1233.62C798.35,1358.03 940.186,1502 1250,1502C1583.33,1502 1791.67,1335.33 1875,1002C1750,1168.67 1604.17,1231.17 1437.5,1189.5C1342.41,1165.73 1274.44,1096.74 1199.21,1020.38C1076.65,895.975 934.814,752 625,752Z" style="fill:url(#_Linear1);fill-rule:nonzero;"/>
        </g>
    </g>
    <defs>
        <linearGradient id="_Linear1" x1="0" y1="0" x2="1" y2="0" gradientUnits="userSpaceOnUse" gradientTransform="matrix(2569.45,533.34,-533.34,2569.45,-69.45,482)"><stop offset="0" style="stop-color:rgb(34,152,189);stop-opacity:1"/><stop offset="1" style="stop-color:rgb(14,215,181);stop-opacity:1"/></linearGradient>
    </defs>
</svg>
